<?xml version="1.0" encoding="utf-8"?>
<!-- Generator: Adobe Illustrator 19.0.0, SVG Export Plug-In . SVG Version: 6.00 Build 0)  -->
<svg version="1.1" id="Layer_1" xmlns="http://www.w3.org/2000/svg" xmlns:xlink="http://www.w3.org/1999/xlink" x="0px" y="0px"
	 viewBox="0 0 94 90" style="enable-background:new 0 0 94 90;" xml:space="preserve">
<style type="text/css">
	.st0{fill:#726658;}
	.st1{stroke:#000000;stroke-width:0.25;stroke-miterlimit:10;}
</style>
<rect x="-1147.4" y="-106.8" class="st0" width="280" height="297"/>
<rect x="-866.5" y="-107.4" class="st0" width="280" height="297.6"/>
<rect x="-585.6" y="-107.4" class="st0" width="280" height="297.6"/>
<rect x="-1147.4" y="190.9" class="st0" width="280" height="297"/>
<rect x="-866.5" y="190.2" class="st0" width="280" height="297.6"/>
<rect x="-585.6" y="190.2" class="st0" width="280" height="297.6"/>
<g>
	<g>
		<path class="st1" d="M9,82.9c-0.5,0.2-1.4,0.3-2.2,0.3c-2.6,0-3.9-1.8-3.9-5c0-3.1,1.4-4.9,4-4.9c0.9,0,1.8,0.3,2.2,0.5
			c0.2,0.1,0.2,0.3,0.1,0.4L9,74.8C9,74.9,8.8,75,8.6,74.9c-0.4-0.2-1-0.4-1.8-0.4c-1.7,0-2.5,1.2-2.5,3.8C4.4,81,5.3,82,7,82
			c0.4,0,0.8-0.1,1.1-0.1v-3.1H6.6c-0.2,0-0.3-0.2-0.3-0.3v-0.6c0-0.2,0.1-0.3,0.3-0.3h2.4c0.2,0,0.3,0.1,0.3,0.3v4.5
			C9.4,82.6,9.3,82.8,9,82.9z"/>
	</g>
	<g>
		<path class="st1" d="M24.9,83.1h-1c-0.2,0-0.3,0-0.3-0.2c-0.3-1-0.7-2.2-1.1-3c-0.3-0.6-0.8-1.2-1.7-1.2h-0.7v4.1
			c0,0.2-0.1,0.3-0.3,0.3H19c-0.2,0-0.3-0.1-0.3-0.3v-9.2c0-0.2,0.2-0.3,0.3-0.3h2.5c2.2,0,2.9,1.1,2.9,2.4c0,1.5-0.9,2.3-2.2,2.4
			c0.8,0.1,1.3,0.8,1.6,1.5c0.2,0.4,0.7,1.7,1.2,3.1C25.2,83,25.2,83.1,24.9,83.1z M21.5,74.5h-1.5v3h1.3c1.1,0,1.8-0.6,1.8-1.6
			C23.1,75.1,22.6,74.5,21.5,74.5z"/>
	</g>
	<g>
		<path class="st1" d="M40.1,83.1h-0.9c-0.2,0-0.4-0.1-0.4-0.3l-0.6-2.3H35l-0.6,2.3c0,0.2-0.2,0.3-0.4,0.3h-0.8
			c-0.2,0-0.3-0.2-0.2-0.4l2.6-9.1c0.1-0.2,0.2-0.3,0.4-0.3h1.2c0.2,0,0.4,0.1,0.4,0.3l2.8,9.1C40.4,83,40.3,83.1,40.1,83.1z
			 M36.7,75.3c-0.1-0.4-0.2-0.8-0.2-1.2c0,0.4-0.1,0.8-0.2,1.2l-1,4.1h2.6L36.7,75.3z"/>
	</g>
	<g>
		<path class="st1" d="M57.2,83.1h-0.9c-0.2,0-0.3-0.1-0.3-0.3l-0.4-6.6c0-0.6,0-2,0-2s-0.2,1.4-0.3,2l-1.4,5.6
			c-0.1,0.2-0.2,0.3-0.4,0.3h-1c-0.2,0-0.3-0.1-0.4-0.3l-1.4-5.6c-0.1-0.6-0.4-2-0.4-2s0.1,1.4,0,2L50,82.9c0,0.2-0.1,0.3-0.3,0.3
			h-0.8c-0.2,0-0.3-0.1-0.3-0.3l0.7-9.2c0-0.2,0.2-0.3,0.4-0.3h1.3c0.2,0,0.3,0.1,0.3,0.3l1.4,5.9c0.1,0.4,0.2,1.7,0.2,1.7
			s0.1-1.3,0.2-1.7l1.5-5.9c0-0.1,0.2-0.3,0.3-0.3h1.3c0.2,0,0.3,0.1,0.3,0.3l0.7,9.2C57.5,83,57.4,83.1,57.2,83.1z"/>
	</g>
	<g>
		<path class="st1" d="M75.1,83.1h-0.9c-0.2,0-0.3-0.1-0.3-0.3l-0.4-6.6c0-0.6,0-2,0-2s-0.2,1.4-0.3,2l-1.4,5.6
			c-0.1,0.2-0.2,0.3-0.4,0.3h-1c-0.2,0-0.3-0.1-0.4-0.3l-1.4-5.6c-0.1-0.6-0.4-2-0.4-2s0.1,1.4,0,2l-0.4,6.6c0,0.2-0.1,0.3-0.3,0.3
			h-0.8c-0.2,0-0.3-0.1-0.3-0.3l0.7-9.2c0-0.2,0.2-0.3,0.4-0.3h1.3c0.2,0,0.3,0.1,0.3,0.3l1.4,5.9c0.1,0.4,0.2,1.7,0.2,1.7
			s0.1-1.3,0.2-1.7l1.5-5.9c0-0.1,0.2-0.3,0.4-0.3h1.3c0.2,0,0.3,0.1,0.4,0.3l0.7,9.2C75.3,83,75.3,83.1,75.1,83.1z"/>
	</g>
	<g>
		<path class="st1" d="M90.8,83.1H90c-0.2,0-0.4-0.1-0.4-0.3l-0.6-2.3h-3.2l-0.6,2.3c0,0.2-0.2,0.3-0.4,0.3h-0.8
			c-0.2,0-0.3-0.2-0.2-0.4l2.6-9.1c0.1-0.2,0.2-0.3,0.4-0.3h1.2c0.2,0,0.4,0.1,0.4,0.3l2.8,9.1C91.1,83,91,83.1,90.8,83.1z
			 M87.5,75.3c-0.1-0.4-0.2-0.8-0.2-1.2c0,0.4-0.1,0.8-0.2,1.2l-1,4.1h2.6L87.5,75.3z"/>
	</g>
</g>
<g>
	<path d="M37.8,27.1c0-3.7-3-6.7-6.7-6.7c-3.7,0-6.7,3-6.7,6.7c0,3.7,3,6.7,6.7,6.7C34.8,33.8,37.8,30.8,37.8,27.1z M31.1,31.3
		c-2.3,0-4.1-1.9-4.1-4.2c0-2.3,1.9-4.2,4.1-4.2c2.3,0,4.2,1.9,4.2,4.2C35.2,29.4,33.3,31.3,31.1,31.3z"/>
	<path d="M62.9,20.4c-3.7,0-6.7,3-6.7,6.7c0,3.7,3,6.7,6.7,6.7c3.7,0,6.7-3,6.7-6.7C69.7,23.4,66.7,20.4,62.9,20.4z M62.9,31.3
		c-2.3,0-4.2-1.9-4.2-4.2c0-2.3,1.9-4.2,4.2-4.2c2.3,0,4.1,1.9,4.1,4.2C67.1,29.4,65.2,31.3,62.9,31.3z"/>
	<path d="M47,33.9c3.7,0,6.8-3,6.8-6.8c0-3.7-3-6.8-6.8-6.8h-2.8c-0.8,0-1.4-0.6-1.4-1.4c0-0.8,0.6-1.4,1.4-1.4H47l0,0l0,0
		c3.7,0,6.8-3,6.8-6.8c0-1.4,0.7-2.6,1.8-3.4c0.3-0.2,0.5-0.3,0.8-0.4l-1-2.4c-0.5,0.2-0.9,0.4-1.3,0.7c-0.6,0.4-1.1,1-1.6,1.6
		C51.3,5,49.3,3.9,47,3.9c-3.7,0-6.8,3-6.8,6.8c0,1.9,0.8,3.5,2,4.8c-1.2,0.7-2,2-2,3.5c0,1.5,0.8,2.8,2,3.5c-1.2,1.2-2,2.9-2,4.8
		C40.2,30.9,43.3,33.9,47,33.9z M51.2,27.2c0,2.3-1.9,4.2-4.2,4.2c-2.3,0-4.2-1.9-4.2-4.2c0-2.3,1.9-4.2,4.2-4.2
		C49.3,23,51.2,24.8,51.2,27.2z M47,6.5c2.3,0,4.2,1.9,4.2,4.2s-1.9,4.2-4.2,4.2c-2.3,0-4.2-1.9-4.2-4.2S44.7,6.5,47,6.5z"/>
	<path d="M47,48c-1.2,0-2.3,0.3-3.4,0.9c-1.6,0.9-2.7,2.4-3.1,4.1c-0.5,1.7-0.2,3.6,0.7,5.1c1.2,2.1,3.4,3.4,5.8,3.4
		c1.2,0,2.3-0.3,3.4-0.9c3.2-1.9,4.3-6,2.5-9.2C51.6,49.3,49.4,48,47,48z M49.1,58.3c-0.6,0.4-1.3,0.6-2.1,0.6
		c-1.5,0-2.9-0.8-3.6-2.1c-0.6-1-0.7-2.1-0.4-3.1c0.3-1.1,1-2,1.9-2.5c0.6-0.4,1.3-0.6,2.1-0.6c1.5,0,2.9,0.8,3.6,2.1
		C51.7,54.6,51.1,57.2,49.1,58.3z"/>
	<path d="M45.5,42.7c0.5-1.8,0.2-3.6-0.7-5.2c-1.2-2.1-3.5-3.4-5.9-3.4c-1.2,0-2.4,0.3-3.4,0.9c-3.2,1.9-4.4,6-2.5,9.3
		c1.2,2.1,3.5,3.4,5.9,3.4c1.2,0,2.4-0.3,3.4-0.9C44,45.9,45.1,44.4,45.5,42.7z M41.1,44.6c-0.6,0.4-1.4,0.6-2.1,0.6
		c-1.5,0-2.9-0.8-3.6-2.1c-1.2-2-0.5-4.6,1.5-5.7c0.6-0.4,1.4-0.6,2.1-0.6c1.5,0,2.9,0.8,3.6,2.1c0.6,1,0.7,2.1,0.4,3.2
		C42.8,43.1,42.1,44,41.1,44.6z"/>
	<path d="M58.4,35.1c-1-0.6-2.2-0.9-3.4-0.9c-2.4,0-4.7,1.3-5.9,3.4c-0.9,1.6-1.1,3.4-0.7,5.2c0.5,1.8,1.6,3.2,3.2,4.1
		c1,0.6,2.2,0.9,3.4,0.9c2.4,0,4.7-1.3,5.9-3.4C62.8,41.1,61.6,36.9,58.4,35.1z M58.6,43c-0.7,1.3-2.1,2.1-3.6,2.1
		c-0.7,0-1.5-0.2-2.1-0.6c-1-0.6-1.7-1.5-2-2.6c-0.3-1.1-0.1-2.2,0.4-3.2c0.7-1.3,2.1-2.1,3.6-2.1c0.7,0,1.5,0.2,2.1,0.6
		C59.1,38.5,59.8,41,58.6,43z"/>
</g>
</svg>
